<?xml version="1.0" encoding="utf-8"?>
<!-- Generator: Adobe Illustrator 17.0.0, SVG Export Plug-In . SVG Version: 6.00 Build 0)  -->
<!DOCTYPE svg PUBLIC "-//W3C//DTD SVG 1.1//EN" "http://www.w3.org/Graphics/SVG/1.1/DTD/svg11.dtd">
<svg version="1.1" id="图层_1" xmlns="http://www.w3.org/2000/svg" xmlns:xlink="http://www.w3.org/1999/xlink" x="0px" y="0px"
	 width="200px" height="200px" viewBox="0 0 200 200" enable-background="new 0 0 200 200" xml:space="preserve">
<rect fill="#FFFFFF" width="200" height="200"/>
<g>
	<path fill="#1372D8" d="M156.399,55.285H43.601c-1.989,0-3.601,1.612-3.601,3.601v82.227c0,1.989,1.612,3.601,3.601,3.601h112.798
		c1.989,0,3.601-1.612,3.601-3.601V58.886C160,56.897,158.388,55.285,156.399,55.285z M152.798,62.488v52.888l-23.316-17.488
		c-1.197-0.897-2.825-0.959-4.088-0.162l-15.798,10.007L77.418,85.992c-1.15-0.778-2.646-0.826-3.842-0.12L47.202,101.39V62.488
		H152.798z M47.202,137.512v-27.768L75.27,93.232l32.246,21.787c1.186,0.802,2.734,0.824,3.943,0.059l15.69-9.938l25.649,19.238
		v13.134H47.202z"/>
	<path fill="#58B9FA" d="M108.84,95.017c6.951,0,12.606-5.655,12.606-12.605s-5.655-12.605-12.606-12.605
		c-6.951,0-12.605,5.655-12.605,12.605S101.889,95.017,108.84,95.017z M108.84,77.009c2.979,0,5.404,2.424,5.404,5.403
		c0,2.979-2.424,5.403-5.404,5.403s-5.403-2.424-5.403-5.403C103.437,79.433,105.86,77.009,108.84,77.009z"/>
</g>
</svg>
